<mxfile host="Electron" agent="Mozilla/5.0 (Macintosh; Intel Mac OS X 10_15_7) AppleWebKit/537.36 (KHTML, like Gecko) draw.io/24.7.5 Chrome/126.0.6478.183 Electron/31.3.0 Safari/537.36" version="24.7.5">
  <diagram name="Pagina-1" id="4dVb2HpnD1jWV-ccPuH6">
    <mxGraphModel dx="1360" dy="703" grid="1" gridSize="10" guides="1" tooltips="1" connect="1" arrows="1" fold="1" page="1" pageScale="1" pageWidth="1169" pageHeight="827" math="0" shadow="0">
      <root>
        <mxCell id="0" />
        <mxCell id="1" parent="0" />
        <mxCell id="ysbT00GofvheHlbjGQ7w-10" style="rounded=0;orthogonalLoop=1;jettySize=auto;html=1;exitX=0;exitY=0.5;exitDx=0;exitDy=0;entryX=0.5;entryY=1;entryDx=0;entryDy=0;endArrow=none;endFill=0;startArrow=classic;startFill=1;" parent="1" source="ysbT00GofvheHlbjGQ7w-1" target="ysbT00GofvheHlbjGQ7w-3" edge="1">
          <mxGeometry relative="1" as="geometry" />
        </mxCell>
        <mxCell id="ysbT00GofvheHlbjGQ7w-16" value="rdfs:subClassOf" style="edgeLabel;html=1;align=center;verticalAlign=middle;resizable=0;points=[];" parent="ysbT00GofvheHlbjGQ7w-10" vertex="1" connectable="0">
          <mxGeometry x="0.4094" y="2" relative="1" as="geometry">
            <mxPoint x="33" y="8" as="offset" />
          </mxGeometry>
        </mxCell>
        <mxCell id="ysbT00GofvheHlbjGQ7w-11" style="rounded=0;orthogonalLoop=1;jettySize=auto;html=1;exitX=0.5;exitY=1;exitDx=0;exitDy=0;entryX=0.25;entryY=0;entryDx=0;entryDy=0;" parent="1" source="ysbT00GofvheHlbjGQ7w-5" target="ysbT00GofvheHlbjGQ7w-1" edge="1">
          <mxGeometry relative="1" as="geometry" />
        </mxCell>
        <mxCell id="ysbT00GofvheHlbjGQ7w-17" value="rdfs:subClassOf" style="edgeLabel;html=1;align=center;verticalAlign=middle;resizable=0;points=[];" parent="ysbT00GofvheHlbjGQ7w-11" vertex="1" connectable="0">
          <mxGeometry x="0.5073" relative="1" as="geometry">
            <mxPoint x="-39" y="-20" as="offset" />
          </mxGeometry>
        </mxCell>
        <mxCell id="ysbT00GofvheHlbjGQ7w-12" style="rounded=0;orthogonalLoop=1;jettySize=auto;html=1;exitX=0.5;exitY=1;exitDx=0;exitDy=0;entryX=0.75;entryY=0;entryDx=0;entryDy=0;" parent="1" source="ysbT00GofvheHlbjGQ7w-6" target="ysbT00GofvheHlbjGQ7w-1" edge="1">
          <mxGeometry relative="1" as="geometry" />
        </mxCell>
        <mxCell id="ysbT00GofvheHlbjGQ7w-18" value="rdfs:subClassOf" style="edgeLabel;html=1;align=center;verticalAlign=middle;resizable=0;points=[];" parent="ysbT00GofvheHlbjGQ7w-12" vertex="1" connectable="0">
          <mxGeometry x="0.6282" y="-2" relative="1" as="geometry">
            <mxPoint x="52" y="-23" as="offset" />
          </mxGeometry>
        </mxCell>
        <mxCell id="ysbT00GofvheHlbjGQ7w-13" style="rounded=0;orthogonalLoop=1;jettySize=auto;html=1;exitX=0.5;exitY=1;exitDx=0;exitDy=0;entryX=1;entryY=0.5;entryDx=0;entryDy=0;" parent="1" source="ysbT00GofvheHlbjGQ7w-7" target="ysbT00GofvheHlbjGQ7w-1" edge="1">
          <mxGeometry relative="1" as="geometry" />
        </mxCell>
        <mxCell id="ysbT00GofvheHlbjGQ7w-19" value="rdfs:subClassOf" style="edgeLabel;html=1;align=center;verticalAlign=middle;resizable=0;points=[];" parent="ysbT00GofvheHlbjGQ7w-13" vertex="1" connectable="0">
          <mxGeometry x="0.4758" relative="1" as="geometry">
            <mxPoint x="126" y="-35" as="offset" />
          </mxGeometry>
        </mxCell>
        <mxCell id="ysbT00GofvheHlbjGQ7w-1" value="Cadence" style="graphMlID=n4;shape=rect;rounded=1;arcsize=30;fillColor=#ffff00;strokeColor=#000000;strokeWidth=1.0" parent="1" vertex="1">
          <mxGeometry x="415.98" y="360" width="190" height="30" as="geometry" />
        </mxCell>
        <mxCell id="ysbT00GofvheHlbjGQ7w-3" value="Half Cadence" style="graphMlID=n4;shape=rect;rounded=1;arcsize=30;fillColor=#ffff00;strokeColor=#000000;strokeWidth=1.0" parent="1" vertex="1">
          <mxGeometry x="80" y="240" width="120" height="40" as="geometry" />
        </mxCell>
        <mxCell id="ysbT00GofvheHlbjGQ7w-5" value="Imperfect Cadence" style="graphMlID=n4;shape=rect;rounded=1;arcsize=30;fillColor=#ffff00;strokeColor=#000000;strokeWidth=1.0" parent="1" vertex="1">
          <mxGeometry x="260" y="240" width="120" height="40" as="geometry" />
        </mxCell>
        <mxCell id="ysbT00GofvheHlbjGQ7w-6" value="Perfect Cadence" style="graphMlID=n4;shape=rect;rounded=1;arcsize=30;fillColor=#ffff00;strokeColor=#000000;strokeWidth=1.0" parent="1" vertex="1">
          <mxGeometry x="620" y="240" width="120" height="40" as="geometry" />
        </mxCell>
        <mxCell id="ysbT00GofvheHlbjGQ7w-7" value="Plagal Cadence" style="graphMlID=n4;shape=rect;rounded=1;arcsize=30;fillColor=#ffff00;strokeColor=#000000;strokeWidth=1.0" parent="1" vertex="1">
          <mxGeometry x="810" y="240" width="120" height="40" as="geometry" />
        </mxCell>
        <mxCell id="ysbT00GofvheHlbjGQ7w-22" value="Degree" style="graphMlID=n4;shape=rect;rounded=1;arcsize=30;fillColor=#ffff00;strokeColor=#000000;strokeWidth=1.0" parent="1" vertex="1">
          <mxGeometry x="445" y="486" width="140" height="30" as="geometry" />
        </mxCell>
        <mxCell id="ysbT00GofvheHlbjGQ7w-23" value="key" style="graphMlID=n4;shape=rect;rounded=1;arcsize=30;fillColor=#ffff00;strokeColor=#000000;strokeWidth=1.0" parent="1" vertex="1">
          <mxGeometry x="186.52999999999997" y="486" width="80" height="30" as="geometry" />
        </mxCell>
        <mxCell id="ysbT00GofvheHlbjGQ7w-24" value="section" style="graphMlID=n4;shape=rect;rounded=1;arcsize=30;fillColor=#ffff00;strokeColor=#000000;strokeWidth=1.0" parent="1" vertex="1">
          <mxGeometry x="750" y="486" width="80" height="34" as="geometry" />
        </mxCell>
        <mxCell id="eLWtmVyoUUouMIqwLgfq-1" value="" style="graphMlID=e6;rounded=0;endArrow=block;strokeColor=#008000;dashed=1;dashPattern=1 1;strokeWidth=1.0;startArrow=oval;startFill=0;endFill=0;" edge="1" parent="1">
          <mxGeometry relative="1" as="geometry">
            <Array as="points" />
            <mxPoint x="789.49" y="525" as="sourcePoint" />
            <mxPoint x="789.49" y="595" as="targetPoint" />
          </mxGeometry>
        </mxCell>
        <mxCell id="eLWtmVyoUUouMIqwLgfq-2" value="&lt;font size=&quot;1&quot; face=&quot;dialog&quot; color=&quot;#008000&quot;&gt;&lt;span style=&quot;background-color: rgb(248, 249, 250); font-size: 13px;&quot;&gt;hasName&lt;/span&gt;&lt;/font&gt;" style="text;html=1;align=center;verticalAlign=middle;resizable=0;points=[];labelBackgroundColor=#ffffff;" vertex="1" connectable="0" parent="eLWtmVyoUUouMIqwLgfq-1">
          <mxGeometry x="-0.087" y="3" relative="1" as="geometry">
            <mxPoint x="14" as="offset" />
          </mxGeometry>
        </mxCell>
        <mxCell id="eLWtmVyoUUouMIqwLgfq-3" value="" style="graphMlID=e6;rounded=0;endArrow=block;strokeColor=#008000;dashed=1;dashPattern=1 1;strokeWidth=1.0;startArrow=oval;startFill=0;endFill=0;entryX=0.5;entryY=0;entryDx=0;entryDy=0;" edge="1" parent="1" target="eLWtmVyoUUouMIqwLgfq-24">
          <mxGeometry relative="1" as="geometry">
            <Array as="points" />
            <mxPoint x="226.02999999999997" y="527" as="sourcePoint" />
            <mxPoint x="226.02999999999997" y="597" as="targetPoint" />
          </mxGeometry>
        </mxCell>
        <mxCell id="eLWtmVyoUUouMIqwLgfq-4" value="&lt;font size=&quot;1&quot; face=&quot;dialog&quot; color=&quot;#008000&quot;&gt;&lt;span style=&quot;background-color: rgb(248, 249, 250); font-size: 13px;&quot;&gt;hasName&lt;/span&gt;&lt;/font&gt;" style="text;html=1;align=center;verticalAlign=middle;resizable=0;points=[];labelBackgroundColor=#ffffff;" vertex="1" connectable="0" parent="eLWtmVyoUUouMIqwLgfq-3">
          <mxGeometry x="-0.087" y="3" relative="1" as="geometry">
            <mxPoint x="14" as="offset" />
          </mxGeometry>
        </mxCell>
        <mxCell id="eLWtmVyoUUouMIqwLgfq-5" value="" style="graphMlID=e5;rounded=0;endArrow=block;strokeColor=#000080;dashed=1;dashPattern=1 1;strokeWidth=1.0;startArrow=oval;startFill=1;endFill=1;entryX=1;entryY=0.5;entryDx=0;entryDy=0;exitX=0;exitY=0.5;exitDx=0;exitDy=0;" edge="1" parent="1" source="ysbT00GofvheHlbjGQ7w-22" target="ysbT00GofvheHlbjGQ7w-23">
          <mxGeometry relative="1" as="geometry">
            <mxPoint x="440" y="510" as="sourcePoint" />
            <mxPoint x="383.5799999999999" y="480" as="targetPoint" />
          </mxGeometry>
        </mxCell>
        <mxCell id="eLWtmVyoUUouMIqwLgfq-6" value="&lt;span style=&quot;color: rgb(0, 0, 128); font-family: dialog; background-color: rgb(248, 249, 250);&quot;&gt;&lt;font style=&quot;font-size: 13px;&quot;&gt;hasKey&lt;/font&gt;&lt;/span&gt;" style="text;html=1;align=center;verticalAlign=middle;resizable=0;points=[];labelBackgroundColor=#ffffff;" vertex="1" connectable="0" parent="eLWtmVyoUUouMIqwLgfq-5">
          <mxGeometry x="-0.1377" y="-3" relative="1" as="geometry">
            <mxPoint x="21" as="offset" />
          </mxGeometry>
        </mxCell>
        <mxCell id="eLWtmVyoUUouMIqwLgfq-8" value="" style="graphMlID=e5;rounded=0;endArrow=block;strokeColor=#000080;dashed=1;dashPattern=1 1;strokeWidth=1.0;startArrow=oval;startFill=1;endFill=1;exitX=0.369;exitY=1.1;exitDx=0;exitDy=0;exitPerimeter=0;entryX=0.172;entryY=-0.1;entryDx=0;entryDy=0;entryPerimeter=0;" edge="1" parent="1" target="ysbT00GofvheHlbjGQ7w-22">
          <mxGeometry relative="1" as="geometry">
            <mxPoint x="492.06999999999994" y="393" as="sourcePoint" />
            <mxPoint x="415.98" y="490" as="targetPoint" />
          </mxGeometry>
        </mxCell>
        <mxCell id="eLWtmVyoUUouMIqwLgfq-9" value="&lt;span style=&quot;color: rgb(0, 0, 128); font-family: dialog; background-color: rgb(248, 249, 250);&quot;&gt;&lt;font style=&quot;font-size: 13px;&quot;&gt;hasFollowingDegree&lt;/font&gt;&lt;/span&gt;" style="text;html=1;align=center;verticalAlign=middle;resizable=0;points=[];labelBackgroundColor=#ffffff;" vertex="1" connectable="0" parent="eLWtmVyoUUouMIqwLgfq-8">
          <mxGeometry x="-0.1377" y="-3" relative="1" as="geometry">
            <mxPoint x="13" y="-3" as="offset" />
          </mxGeometry>
        </mxCell>
        <mxCell id="eLWtmVyoUUouMIqwLgfq-11" value="" style="graphMlID=e5;rounded=0;endArrow=block;strokeColor=#000080;dashed=1;dashPattern=1 1;strokeWidth=1.0;startArrow=oval;startFill=1;endFill=1;exitX=0.669;exitY=1.033;exitDx=0;exitDy=0;exitPerimeter=0;entryX=0.829;entryY=-0.133;entryDx=0;entryDy=0;entryPerimeter=0;" edge="1" parent="1" source="ysbT00GofvheHlbjGQ7w-1" target="ysbT00GofvheHlbjGQ7w-22">
          <mxGeometry relative="1" as="geometry">
            <mxPoint x="488" y="404" as="sourcePoint" />
            <mxPoint x="570" y="490" as="targetPoint" />
          </mxGeometry>
        </mxCell>
        <mxCell id="eLWtmVyoUUouMIqwLgfq-12" value="&lt;span style=&quot;font-family: dialog; background-color: rgb(248, 249, 250);&quot;&gt;&lt;font color=&quot;#000080&quot; style=&quot;font-size: 13px;&quot;&gt;hasPrecedingDegree&lt;/font&gt;&lt;/span&gt;" style="text;html=1;align=center;verticalAlign=middle;resizable=0;points=[];labelBackgroundColor=#ffffff;" vertex="1" connectable="0" parent="eLWtmVyoUUouMIqwLgfq-11">
          <mxGeometry x="-0.1377" y="-3" relative="1" as="geometry">
            <mxPoint x="4" y="33" as="offset" />
          </mxGeometry>
        </mxCell>
        <mxCell id="eLWtmVyoUUouMIqwLgfq-13" value="" style="graphMlID=e5;rounded=0;endArrow=block;strokeColor=#000080;dashed=1;dashPattern=1 1;strokeWidth=1.0;startArrow=oval;startFill=1;endFill=1;exitX=0.869;exitY=1;exitDx=0;exitDy=0;entryX=0.5;entryY=0;entryDx=0;entryDy=0;exitPerimeter=0;" edge="1" parent="1" source="ysbT00GofvheHlbjGQ7w-1" target="ysbT00GofvheHlbjGQ7w-24">
          <mxGeometry relative="1" as="geometry">
            <mxPoint x="551.968221028646" y="404" as="sourcePoint" />
            <mxPoint x="552.97" y="480" as="targetPoint" />
          </mxGeometry>
        </mxCell>
        <mxCell id="eLWtmVyoUUouMIqwLgfq-14" value="&lt;span style=&quot;caret-color: rgb(0, 0, 0); font-family: -webkit-standard; text-align: start; text-wrap: wrap;&quot;&gt;&lt;font style=&quot;font-size: 13px;&quot; color=&quot;#000080&quot;&gt;belongsToSection&lt;/font&gt;&lt;/span&gt;" style="text;html=1;align=center;verticalAlign=middle;resizable=0;points=[];labelBackgroundColor=#ffffff;" vertex="1" connectable="0" parent="eLWtmVyoUUouMIqwLgfq-13">
          <mxGeometry x="-0.1377" y="-3" relative="1" as="geometry">
            <mxPoint x="21" as="offset" />
          </mxGeometry>
        </mxCell>
        <mxCell id="eLWtmVyoUUouMIqwLgfq-21" value="xsd:string" style="graphMlID=n6;shape=parallelogram;fillColor=#ccffcc;strokeColor=#000000;strokeWidth=1.0" vertex="1" parent="1">
          <mxGeometry x="750" y="595" width="93.05" height="25" as="geometry" />
        </mxCell>
        <mxCell id="eLWtmVyoUUouMIqwLgfq-24" value="xsd:string" style="graphMlID=n6;shape=parallelogram;fillColor=#ccffcc;strokeColor=#000000;strokeWidth=1.0" vertex="1" parent="1">
          <mxGeometry x="180" y="603" width="93.05" height="25" as="geometry" />
        </mxCell>
        <mxCell id="eLWtmVyoUUouMIqwLgfq-41" style="edgeStyle=orthogonalEdgeStyle;rounded=0;orthogonalLoop=1;jettySize=auto;html=1;exitX=0;exitY=0.5;exitDx=0;exitDy=0;entryX=0.5;entryY=1;entryDx=0;entryDy=0;" edge="1" parent="1" source="eLWtmVyoUUouMIqwLgfq-29" target="eLWtmVyoUUouMIqwLgfq-38">
          <mxGeometry relative="1" as="geometry" />
        </mxCell>
        <mxCell id="eLWtmVyoUUouMIqwLgfq-48" value="hasFollowingChord" style="edgeLabel;html=1;align=center;verticalAlign=middle;resizable=0;points=[];" vertex="1" connectable="0" parent="eLWtmVyoUUouMIqwLgfq-41">
          <mxGeometry x="-0.0106" y="-2" relative="1" as="geometry">
            <mxPoint as="offset" />
          </mxGeometry>
        </mxCell>
        <mxCell id="eLWtmVyoUUouMIqwLgfq-42" style="edgeStyle=orthogonalEdgeStyle;rounded=0;orthogonalLoop=1;jettySize=auto;html=1;exitX=0;exitY=0;exitDx=0;exitDy=0;entryX=0.5;entryY=1;entryDx=0;entryDy=0;" edge="1" parent="1" source="eLWtmVyoUUouMIqwLgfq-29" target="eLWtmVyoUUouMIqwLgfq-37">
          <mxGeometry relative="1" as="geometry" />
        </mxCell>
        <mxCell id="eLWtmVyoUUouMIqwLgfq-47" value="hasKey" style="edgeLabel;html=1;align=center;verticalAlign=middle;resizable=0;points=[];" vertex="1" connectable="0" parent="eLWtmVyoUUouMIqwLgfq-42">
          <mxGeometry x="0.2374" y="1" relative="1" as="geometry">
            <mxPoint as="offset" />
          </mxGeometry>
        </mxCell>
        <mxCell id="eLWtmVyoUUouMIqwLgfq-43" style="edgeStyle=orthogonalEdgeStyle;rounded=0;orthogonalLoop=1;jettySize=auto;html=1;exitX=1;exitY=0;exitDx=0;exitDy=0;entryX=0.5;entryY=1;entryDx=0;entryDy=0;" edge="1" parent="1" source="eLWtmVyoUUouMIqwLgfq-29" target="eLWtmVyoUUouMIqwLgfq-36">
          <mxGeometry relative="1" as="geometry" />
        </mxCell>
        <mxCell id="eLWtmVyoUUouMIqwLgfq-46" value="belongsToSection" style="edgeLabel;html=1;align=center;verticalAlign=middle;resizable=0;points=[];" vertex="1" connectable="0" parent="eLWtmVyoUUouMIqwLgfq-43">
          <mxGeometry x="0.2175" y="-1" relative="1" as="geometry">
            <mxPoint x="26" y="1" as="offset" />
          </mxGeometry>
        </mxCell>
        <mxCell id="eLWtmVyoUUouMIqwLgfq-44" style="edgeStyle=orthogonalEdgeStyle;rounded=0;orthogonalLoop=1;jettySize=auto;html=1;exitX=1;exitY=1;exitDx=0;exitDy=0;entryX=0.5;entryY=1;entryDx=0;entryDy=0;" edge="1" parent="1" source="eLWtmVyoUUouMIqwLgfq-29" target="eLWtmVyoUUouMIqwLgfq-35">
          <mxGeometry relative="1" as="geometry" />
        </mxCell>
        <mxCell id="eLWtmVyoUUouMIqwLgfq-45" value="hasPrecedingChord" style="edgeLabel;html=1;align=center;verticalAlign=middle;resizable=0;points=[];" vertex="1" connectable="0" parent="eLWtmVyoUUouMIqwLgfq-44">
          <mxGeometry x="0.4821" y="-2" relative="1" as="geometry">
            <mxPoint x="-2" y="25" as="offset" />
          </mxGeometry>
        </mxCell>
        <mxCell id="eLWtmVyoUUouMIqwLgfq-29" value="PerfectCadence1" style="graphMlID=n9;shape=ellipse;fillColor=#ff99cc;strokeColor=#000000;strokeWidth=3.0;verticalAlign=middle;labelPosition=right;verticalLabelPosition=middle;align=left;spacingRight=1;spacing=17;" vertex="1" parent="1">
          <mxGeometry x="489.03" y="130" width="20" height="20" as="geometry" />
        </mxCell>
        <mxCell id="eLWtmVyoUUouMIqwLgfq-32" value="" style="endArrow=classic;html=1;textDirection=ltr;rounded=0;edgeStyle=orthogonalEdgeStyle;dashed=1;dashPattern=1 2;" edge="1" parent="1">
          <mxGeometry width="50" height="50" relative="1" as="geometry">
            <mxPoint x="501" y="150" as="sourcePoint" />
            <mxPoint x="681.98" y="240" as="targetPoint" />
            <Array as="points">
              <mxPoint x="501" y="200" />
              <mxPoint x="682" y="200" />
            </Array>
          </mxGeometry>
        </mxCell>
        <mxCell id="eLWtmVyoUUouMIqwLgfq-33" value="rds:type" style="text;html=1;align=center;verticalAlign=middle;resizable=0;points=[];labelBackgroundColor=#ffffff;rotation=0;" vertex="1" connectable="0" parent="eLWtmVyoUUouMIqwLgfq-32">
          <mxGeometry x="-0.2211" relative="1" as="geometry">
            <mxPoint x="19.95" as="offset" />
          </mxGeometry>
        </mxCell>
        <mxCell id="eLWtmVyoUUouMIqwLgfq-35" value="GMajor" style="graphMlID=n9;shape=ellipse;fillColor=#ff99cc;strokeColor=#000000;strokeWidth=3.0;verticalAlign=middle;labelPosition=right;verticalLabelPosition=middle;align=left;spacingRight=1;spacing=17;" vertex="1" parent="1">
          <mxGeometry x="640" y="60" width="20" height="20" as="geometry" />
        </mxCell>
        <mxCell id="eLWtmVyoUUouMIqwLgfq-36" value="SectionA" style="graphMlID=n9;shape=ellipse;fillColor=#ff99cc;strokeColor=#000000;strokeWidth=3.0;verticalAlign=middle;labelPosition=right;verticalLabelPosition=middle;align=left;spacingRight=1;spacing=17;" vertex="1" parent="1">
          <mxGeometry x="512.93" y="60" width="20" height="20" as="geometry" />
        </mxCell>
        <mxCell id="eLWtmVyoUUouMIqwLgfq-37" value="AMinorKey" style="graphMlID=n9;shape=ellipse;fillColor=#ff99cc;strokeColor=#000000;strokeWidth=3.0;verticalAlign=middle;labelPosition=right;verticalLabelPosition=middle;align=left;spacingRight=1;spacing=17;" vertex="1" parent="1">
          <mxGeometry x="390" y="60" width="20" height="20" as="geometry" />
        </mxCell>
        <mxCell id="eLWtmVyoUUouMIqwLgfq-38" value="Amin" style="graphMlID=n9;shape=ellipse;fillColor=#ff99cc;strokeColor=#000000;strokeWidth=3.0;verticalAlign=middle;labelPosition=right;verticalLabelPosition=middle;align=left;spacingRight=1;spacing=17;" vertex="1" parent="1">
          <mxGeometry x="260" y="60" width="20" height="20" as="geometry" />
        </mxCell>
        <mxCell id="eLWtmVyoUUouMIqwLgfq-49" value="xsd:string" style="graphMlID=n6;shape=parallelogram;fillColor=#ccffcc;strokeColor=#000000;strokeWidth=1.0" vertex="1" parent="1">
          <mxGeometry x="585" y="570" width="93.05" height="25" as="geometry" />
        </mxCell>
        <mxCell id="eLWtmVyoUUouMIqwLgfq-50" value="" style="graphMlID=e6;rounded=0;endArrow=block;strokeColor=#008000;dashed=1;dashPattern=1 1;strokeWidth=1.0;startArrow=oval;startFill=0;endFill=0;entryX=0.636;entryY=0.036;entryDx=0;entryDy=0;entryPerimeter=0;" edge="1" parent="1" target="eLWtmVyoUUouMIqwLgfq-49">
          <mxGeometry relative="1" as="geometry">
            <Array as="points" />
            <mxPoint x="560" y="518" as="sourcePoint" />
            <mxPoint x="583.98" y="586" as="targetPoint" />
          </mxGeometry>
        </mxCell>
        <mxCell id="eLWtmVyoUUouMIqwLgfq-51" value="&lt;font size=&quot;1&quot; face=&quot;dialog&quot; color=&quot;#008000&quot;&gt;&lt;span style=&quot;background-color: rgb(248, 249, 250); font-size: 13px;&quot;&gt;hasName&lt;/span&gt;&lt;/font&gt;" style="text;html=1;align=center;verticalAlign=middle;resizable=0;points=[];labelBackgroundColor=#ffffff;" vertex="1" connectable="0" parent="eLWtmVyoUUouMIqwLgfq-50">
          <mxGeometry x="-0.087" y="3" relative="1" as="geometry">
            <mxPoint x="14" as="offset" />
          </mxGeometry>
        </mxCell>
        <mxCell id="eLWtmVyoUUouMIqwLgfq-52" value="Chord" style="graphMlID=n4;shape=rect;rounded=1;arcsize=30;fillColor=#ffff00;strokeColor=#000000;strokeWidth=1.0" vertex="1" parent="1">
          <mxGeometry x="370" y="625" width="86.53" height="20" as="geometry" />
        </mxCell>
        <mxCell id="eLWtmVyoUUouMIqwLgfq-53" value="" style="graphMlID=e5;rounded=0;endArrow=block;strokeColor=#000080;dashed=1;dashPattern=1 1;strokeWidth=1.0;startArrow=oval;startFill=1;endFill=1;entryX=0.607;entryY=-0.011;entryDx=0;entryDy=0;entryPerimeter=0;exitX=0.324;exitY=0.928;exitDx=0;exitDy=0;exitPerimeter=0;" edge="1" parent="1" source="ysbT00GofvheHlbjGQ7w-22" target="eLWtmVyoUUouMIqwLgfq-52">
          <mxGeometry relative="1" as="geometry">
            <mxPoint x="450" y="520" as="sourcePoint" />
            <mxPoint x="307" y="513" as="targetPoint" />
          </mxGeometry>
        </mxCell>
        <mxCell id="eLWtmVyoUUouMIqwLgfq-54" value="&lt;span style=&quot;color: rgb(0, 0, 128); font-family: dialog; background-color: rgb(248, 249, 250);&quot;&gt;&lt;font style=&quot;font-size: 13px;&quot;&gt;hasChord&lt;/font&gt;&lt;/span&gt;" style="text;html=1;align=center;verticalAlign=middle;resizable=0;points=[];labelBackgroundColor=#ffffff;" vertex="1" connectable="0" parent="eLWtmVyoUUouMIqwLgfq-53">
          <mxGeometry x="-0.1377" y="-3" relative="1" as="geometry">
            <mxPoint x="21" as="offset" />
          </mxGeometry>
        </mxCell>
        <mxCell id="eLWtmVyoUUouMIqwLgfq-55" value="xsd:string" style="graphMlID=n6;shape=parallelogram;fillColor=#ccffcc;strokeColor=#000000;strokeWidth=1.0" vertex="1" parent="1">
          <mxGeometry x="366.74" y="710" width="93.05" height="25" as="geometry" />
        </mxCell>
        <mxCell id="eLWtmVyoUUouMIqwLgfq-56" value="" style="graphMlID=e6;rounded=0;endArrow=block;strokeColor=#008000;dashed=1;dashPattern=1 1;strokeWidth=1.0;startArrow=oval;startFill=0;endFill=0;exitX=0.5;exitY=1;exitDx=0;exitDy=0;entryX=0.5;entryY=0;entryDx=0;entryDy=0;" edge="1" parent="1" source="eLWtmVyoUUouMIqwLgfq-52" target="eLWtmVyoUUouMIqwLgfq-55">
          <mxGeometry relative="1" as="geometry">
            <Array as="points" />
            <mxPoint x="590.98" y="528" as="sourcePoint" />
            <mxPoint x="440" y="722.2222222222222" as="targetPoint" />
          </mxGeometry>
        </mxCell>
        <mxCell id="eLWtmVyoUUouMIqwLgfq-57" value="&lt;font size=&quot;1&quot; face=&quot;dialog&quot; color=&quot;#008000&quot;&gt;&lt;span style=&quot;background-color: rgb(248, 249, 250); font-size: 13px;&quot;&gt;hasName&lt;/span&gt;&lt;/font&gt;" style="text;html=1;align=center;verticalAlign=middle;resizable=0;points=[];labelBackgroundColor=#ffffff;" vertex="1" connectable="0" parent="eLWtmVyoUUouMIqwLgfq-56">
          <mxGeometry x="-0.087" y="3" relative="1" as="geometry">
            <mxPoint x="14" as="offset" />
          </mxGeometry>
        </mxCell>
        <mxCell id="eLWtmVyoUUouMIqwLgfq-58" value="Deceptive Cadence" style="graphMlID=n4;shape=rect;rounded=1;arcsize=30;fillColor=#ffff00;strokeColor=#000000;strokeWidth=1.0" vertex="1" parent="1">
          <mxGeometry x="450.98" y="240" width="120" height="40" as="geometry" />
        </mxCell>
        <mxCell id="eLWtmVyoUUouMIqwLgfq-59" style="rounded=0;orthogonalLoop=1;jettySize=auto;html=1;exitX=0.5;exitY=1;exitDx=0;exitDy=0;" edge="1" parent="1">
          <mxGeometry relative="1" as="geometry">
            <mxPoint x="510.42" y="280" as="sourcePoint" />
            <mxPoint x="510.42" y="360" as="targetPoint" />
          </mxGeometry>
        </mxCell>
        <mxCell id="eLWtmVyoUUouMIqwLgfq-60" value="rdfs:subClassOf" style="edgeLabel;html=1;align=center;verticalAlign=middle;resizable=0;points=[];" vertex="1" connectable="0" parent="eLWtmVyoUUouMIqwLgfq-59">
          <mxGeometry x="0.6282" y="-2" relative="1" as="geometry">
            <mxPoint x="7" y="-36" as="offset" />
          </mxGeometry>
        </mxCell>
      </root>
    </mxGraphModel>
  </diagram>
</mxfile>
